<svg width="208" height="128" viewBox="0 0 208 128" fill="none" xmlns="http://www.w3.org/2000/svg">
<g clip-path="url(#clip0_44_2909)">
<path d="M193 0C196.978 0 200.793 1.58051 203.606 4.39355C206.419 7.2066 208 11.0218 208 15V113C208 116.978 206.419 120.793 203.606 123.606C200.793 126.419 196.978 128 193 128H15C11.0218 128 7.2066 126.419 4.39355 123.606C1.58051 120.793 0 116.978 0 113V15C0 11.0218 1.58051 7.2066 4.39355 4.39355C7.2066 1.58051 11.0218 0 15 0H193ZM131.5 30.001C131.5 30.001 136.401 33.0046 138.75 35.751C141.098 38.4974 144 44.0003 144 50V71H122L154 99L186 71H164V54.251C164 48.5012 161 41.7507 152.25 35.751C143.505 29.7544 131.513 30.0007 131.5 30.001ZM30 98H50V59L70 84L90 59V98H110V30H90L70 55L50 30H30V98ZM173.547 25.5469L164 30L173.547 34.4531L178 44L182.453 34.4531L192 30L182.453 25.5469L178 16L173.547 25.5469Z" fill="black"/>
</g>
<defs>
<clipPath id="clip0_44_2909">
<rect width="208" height="128" fill="white"/>
</clipPath>
</defs>
</svg>
